<svg width="203" height="50" viewBox="0 0 203 50" fill="none" xmlns="http://www.w3.org/2000/svg">
<path d="M24.3608 30.4945C22.2082 27.4541 18.7619 25.8103 15.4291 24.2213L15.2685 24.1444C14.1835 23.6269 13.2418 23.1729 12.3425 22.69C14.1517 22.4274 15.5762 21.9667 16.7776 21.2607C18.5474 20.221 19.7853 18.5637 20.0883 16.8295C20.3086 15.5704 20.0575 14.2507 19.3621 13.0119C18.7167 11.8625 17.726 10.8689 16.5708 10.2158C15.104 9.38664 13.3245 8.96535 11.2825 8.96535C10.5448 8.96535 9.76569 9.02114 8.96832 9.13079L8.7192 9.16542V9.41742L8.72112 15.228L8.72304 20.6817C7.96607 20.4758 7.21967 19.9968 6.51848 19.5005C5.9279 19.0821 5.36329 18.5185 4.84004 17.824C3.1164 15.5387 2.39982 12.5492 2.92499 9.82909C3.46267 7.03299 5.33636 4.53506 7.81217 3.30869C8.96832 2.73543 10.2822 2.43341 11.6115 2.43341C13.1524 2.43341 14.6269 2.83258 15.8763 3.58763L16.0601 3.69921L16.2197 3.55493L16.5554 3.25002L16.8911 2.94511L17.1614 2.69984L16.8613 2.49304C15.3569 1.45809 13.4659 0.888672 11.5355 0.888672C10.2428 0.888672 8.94523 1.14452 7.78139 1.63026C6.3617 2.22276 5.04973 3.17692 3.9888 4.39174C2.94616 5.5854 2.16032 7.00894 1.71691 8.50847C0.897409 11.2825 1.18596 14.3479 2.51044 16.9199C3.80317 19.4303 6.05198 21.4117 8.70285 22.3832L8.71823 26.2893L8.73362 30.3906L8.73459 30.6782H9.02218H9.47714H9.93209H10.2197L10.2206 30.3906V30.3685L10.2408 23.1527C11.6557 24.0126 13.1697 24.7205 14.6375 25.4073C15.5147 25.817 16.4208 26.2412 17.2912 26.6913C20.3432 28.2678 22.3294 29.9184 23.5433 31.8863C25.3823 34.8671 25.4045 38.9761 23.5991 42.1108C21.8341 45.1762 18.4657 47.2731 14.8087 47.5828C14.5105 47.6078 14.2066 47.6203 13.9045 47.6203C9.65797 47.6203 5.59798 45.1839 3.8022 41.5587C1.8179 37.5535 2.87017 32.246 6.19914 29.4759L6.43768 29.2778L6.22319 29.0546L5.52007 28.3226C5.52007 28.3226 4.09557 29.6423 3.70025 30.1405C3.30493 30.6388 2.51428 31.9488 2.42002 32.147C1.71402 33.6388 1.30523 35.2816 1.23887 36.8985C1.11383 39.9466 2.52679 43.2612 4.92853 45.5485C5.9808 46.5507 7.21197 47.3616 8.58935 47.9589C9.94652 48.5475 11.3797 48.9005 12.8484 49.0082C13.1476 49.0304 13.4525 49.041 13.7555 49.041C15.8523 49.041 17.9616 48.5177 19.8536 47.528C21.7821 46.5199 23.3923 45.0723 24.509 43.3429C25.7103 41.4827 26.3634 39.1887 26.3471 36.8822C26.3288 34.5131 25.643 32.3047 24.3608 30.4945ZM10.236 21.102V10.4793C10.5458 10.4447 10.8786 10.4293 11.2643 10.4293C15.3666 10.4293 18.7042 12.8387 18.7042 15.8012C18.7042 17.4604 17.6404 19.0013 15.7859 20.0305L15.758 20.0459C14.4547 20.7634 12.8994 21.1434 11.2643 21.1434C10.9103 21.1424 10.5717 21.1289 10.236 21.102Z" fill="white"/>
<path d="M9.53912 8.39642C10.2369 8.32735 10.7466 7.7057 10.6775 7.00793C10.6084 6.31016 9.98677 5.8005 9.289 5.86957C8.59123 5.93864 8.08157 6.56028 8.15064 7.25805C8.21971 7.95582 8.84135 8.46549 9.53912 8.39642Z" fill="white"/>
<path d="M38.756 22.5199C38.756 21.7399 38.888 20.9779 39.152 20.2339C39.428 19.4779 39.824 18.7939 40.34 18.1819C40.856 17.5579 41.492 17.0659 42.248 16.7059C43.004 16.3339 43.862 16.1479 44.822 16.1479C45.962 16.1479 46.934 16.4119 47.738 16.9399C48.554 17.4559 49.154 18.1219 49.538 18.9379L48.548 19.5499C48.272 18.9859 47.924 18.5419 47.504 18.2179C47.084 17.8819 46.634 17.6419 46.154 17.4979C45.686 17.3539 45.218 17.2819 44.75 17.2819C43.982 17.2819 43.304 17.4379 42.716 17.7499C42.128 18.0499 41.63 18.4579 41.222 18.9739C40.826 19.4779 40.526 20.0479 40.322 20.6839C40.118 21.3079 40.016 21.9439 40.016 22.5919C40.016 23.2999 40.136 23.9779 40.376 24.6259C40.616 25.2739 40.952 25.8499 41.384 26.3539C41.816 26.8459 42.32 27.2419 42.896 27.5419C43.484 27.8299 44.12 27.9739 44.804 27.9739C45.284 27.9739 45.776 27.8899 46.28 27.7219C46.784 27.5539 47.252 27.2959 47.684 26.9479C48.128 26.5999 48.482 26.1499 48.746 25.5979L49.79 26.1379C49.526 26.7739 49.118 27.3139 48.566 27.7579C48.014 28.2019 47.396 28.5379 46.712 28.7659C46.04 28.9939 45.38 29.1079 44.732 29.1079C43.856 29.1079 43.052 28.9219 42.32 28.5499C41.588 28.1659 40.952 27.6619 40.412 27.0379C39.884 26.4019 39.476 25.6939 39.188 24.9139C38.9 24.1219 38.756 23.3239 38.756 22.5199Z" fill="white"/>
<path d="M51.9418 28.9999V16.2199H57.3418C57.8938 16.2199 58.3978 16.3339 58.8538 16.5619C59.3098 16.7899 59.7058 17.1019 60.0418 17.4979C60.3898 17.8819 60.6538 18.3139 60.8338 18.7939C61.0258 19.2619 61.1218 19.7419 61.1218 20.2339C61.1218 20.8459 61.0018 21.4219 60.7618 21.9619C60.5338 22.5019 60.2038 22.9579 59.7718 23.3299C59.3518 23.7019 58.8538 23.9479 58.2778 24.0679L61.4098 28.9999H59.9878L56.9818 24.2839H53.2018V28.9999H51.9418ZM53.2018 23.1679H57.3778C57.8818 23.1679 58.3198 23.0299 58.6918 22.7539C59.0638 22.4779 59.3518 22.1179 59.5558 21.6739C59.7598 21.2179 59.8618 20.7379 59.8618 20.2339C59.8618 19.7179 59.7418 19.2439 59.5018 18.8119C59.2738 18.3679 58.9618 18.0139 58.5658 17.7499C58.1818 17.4739 57.7498 17.3359 57.2698 17.3359H53.2018V23.1679Z" fill="white"/>
<path d="M63.7016 28.9999V16.2199H64.9616V28.9999H63.7016Z" fill="white"/>
<path d="M75.6364 18.6139C75.4564 18.4099 75.2465 18.2299 75.0065 18.0739C74.7665 17.9059 74.4964 17.7619 74.1964 17.6419C73.8964 17.5219 73.5724 17.4259 73.2244 17.3539C72.8884 17.2819 72.5285 17.2459 72.1445 17.2459C71.0285 17.2459 70.2064 17.4619 69.6784 17.8939C69.1624 18.3139 68.9044 18.8899 68.9044 19.6219C68.9044 20.1259 69.0245 20.5219 69.2645 20.8099C69.5165 21.0979 69.9064 21.3319 70.4344 21.5119C70.9624 21.6919 71.6345 21.8779 72.4505 22.0699C73.3625 22.2619 74.1484 22.4899 74.8084 22.7539C75.4684 23.0179 75.9785 23.3779 76.3385 23.8339C76.6985 24.2779 76.8784 24.8839 76.8784 25.6519C76.8784 26.2399 76.7644 26.7499 76.5364 27.1819C76.3084 27.6139 75.9905 27.9739 75.5825 28.2619C75.1745 28.5499 74.6885 28.7659 74.1245 28.9099C73.5605 29.0419 72.9425 29.1079 72.2705 29.1079C71.6105 29.1079 70.9744 29.0419 70.3624 28.9099C69.7624 28.7659 69.1924 28.5619 68.6524 28.2979C68.1124 28.0219 67.6084 27.6739 67.1404 27.2539L67.7704 26.2279C67.9984 26.4679 68.2685 26.6959 68.5805 26.9119C68.9045 27.1159 69.2584 27.3019 69.6424 27.4699C70.0384 27.6379 70.4585 27.7699 70.9025 27.8659C71.3585 27.9499 71.8264 27.9919 72.3064 27.9919C73.3264 27.9919 74.1184 27.8059 74.6824 27.4339C75.2584 27.0619 75.5464 26.5099 75.5464 25.7779C75.5464 25.2499 75.4024 24.8299 75.1144 24.5179C74.8264 24.1939 74.3945 23.9299 73.8185 23.7259C73.2425 23.5219 72.5345 23.3239 71.6945 23.1319C70.8065 22.9279 70.0565 22.6999 69.4445 22.4479C68.8325 22.1959 68.3704 21.8659 68.0584 21.4579C67.7584 21.0379 67.6084 20.4859 67.6084 19.8019C67.6084 19.0099 67.8005 18.3439 68.1845 17.8039C68.5805 17.2519 69.1204 16.8379 69.8044 16.5619C70.4884 16.2739 71.2744 16.1299 72.1624 16.1299C72.7264 16.1299 73.2485 16.1899 73.7285 16.3099C74.2205 16.4179 74.6704 16.5799 75.0784 16.7959C75.4984 17.0119 75.8885 17.2819 76.2485 17.6059L75.6364 18.6139Z" fill="white"/>
<path d="M83.6879 28.9999V16.2199H88.0259C89.3819 16.2199 90.5099 16.5079 91.4099 17.0839C92.3219 17.6479 93.0059 18.4159 93.4619 19.3879C93.9179 20.3479 94.1459 21.4159 94.1459 22.5919C94.1459 23.8879 93.8939 25.0159 93.3899 25.9759C92.8979 26.9359 92.1899 27.6799 91.2659 28.2079C90.3539 28.7359 89.2739 28.9999 88.0259 28.9999H83.6879ZM92.8859 22.5919C92.8859 21.5719 92.6939 20.6659 92.3099 19.8739C91.9379 19.0819 91.3919 18.4639 90.6719 18.0199C89.9519 17.5639 89.0699 17.3359 88.0259 17.3359H84.9479V27.8839H88.0259C89.0819 27.8839 89.9699 27.6499 90.6899 27.1819C91.4099 26.7139 91.9559 26.0839 92.3279 25.2919C92.6999 24.4879 92.8859 23.5879 92.8859 22.5919Z" fill="white"/>
<path d="M105.141 27.8839V28.9999H96.5551V16.2199H104.979V17.3359H97.8151V21.9439H104.061V23.0059H97.8151V27.8839H105.141Z" fill="white"/>
<path d="M113.372 18.5419V28.9999H112.112V16.2199H113.156L121.544 26.8759V16.2379H122.804V28.9999H121.634L113.372 18.5419Z" fill="white"/>
<path d="M131.164 29.0899C130.264 29.0899 129.448 28.9099 128.716 28.5499C127.984 28.1899 127.354 27.7039 126.826 27.0919C126.298 26.4679 125.89 25.7719 125.602 25.0039C125.314 24.2239 125.17 23.4259 125.17 22.6099C125.17 21.7579 125.32 20.9479 125.62 20.1799C125.92 19.3999 126.34 18.7099 126.88 18.1099C127.432 17.4979 128.074 17.0179 128.806 16.6699C129.538 16.3099 130.33 16.1299 131.182 16.1299C132.082 16.1299 132.898 16.3159 133.63 16.6879C134.362 17.0599 134.986 17.5579 135.502 18.1819C136.03 18.8059 136.438 19.5019 136.726 20.2699C137.014 21.0379 137.158 21.8239 137.158 22.6279C137.158 23.4799 137.008 24.2959 136.708 25.0759C136.408 25.8439 135.988 26.5339 135.448 27.1459C134.908 27.7459 134.272 28.2199 133.54 28.5679C132.808 28.9159 132.016 29.0899 131.164 29.0899ZM126.43 22.6099C126.43 23.3059 126.544 23.9779 126.772 24.6259C127 25.2619 127.324 25.8319 127.744 26.3359C128.164 26.8279 128.662 27.2239 129.238 27.5239C129.826 27.8119 130.468 27.9559 131.164 27.9559C131.896 27.9559 132.55 27.8059 133.126 27.5059C133.714 27.1939 134.212 26.7859 134.62 26.2819C135.04 25.7659 135.358 25.1899 135.574 24.5539C135.79 23.9179 135.898 23.2699 135.898 22.6099C135.898 21.9139 135.784 21.2479 135.556 20.6119C135.328 19.9759 134.998 19.4059 134.566 18.9019C134.146 18.3979 133.648 18.0019 133.072 17.7139C132.496 17.4259 131.86 17.2819 131.164 17.2819C130.444 17.2819 129.79 17.4319 129.202 17.7319C128.626 18.0319 128.128 18.4399 127.708 18.9559C127.3 19.4599 126.982 20.0299 126.754 20.6659C126.538 21.3019 126.43 21.9499 126.43 22.6099Z" fill="white"/>
<path d="M139.534 28.9999V16.2199H144.934C145.486 16.2199 145.99 16.3339 146.446 16.5619C146.902 16.7899 147.298 17.1019 147.634 17.4979C147.982 17.8819 148.246 18.3139 148.426 18.7939C148.618 19.2619 148.714 19.7419 148.714 20.2339C148.714 20.8459 148.594 21.4219 148.354 21.9619C148.126 22.5019 147.796 22.9579 147.364 23.3299C146.944 23.7019 146.446 23.9479 145.87 24.0679L149.002 28.9999H147.58L144.574 24.2839H140.794V28.9999H139.534ZM140.794 23.1679H144.97C145.474 23.1679 145.912 23.0299 146.284 22.7539C146.656 22.4779 146.944 22.1179 147.148 21.6739C147.352 21.2179 147.454 20.7379 147.454 20.2339C147.454 19.7179 147.334 19.2439 147.094 18.8119C146.866 18.3679 146.554 18.0139 146.158 17.7499C145.774 17.4739 145.342 17.3359 144.862 17.3359H140.794V23.1679Z" fill="white"/>
<path d="M156.441 29.0899C155.541 29.0899 154.725 28.9099 153.993 28.5499C153.261 28.1899 152.631 27.7039 152.103 27.0919C151.575 26.4679 151.167 25.7719 150.879 25.0039C150.591 24.2239 150.447 23.4259 150.447 22.6099C150.447 21.7579 150.597 20.9479 150.897 20.1799C151.197 19.3999 151.617 18.7099 152.157 18.1099C152.709 17.4979 153.351 17.0179 154.083 16.6699C154.815 16.3099 155.607 16.1299 156.459 16.1299C157.359 16.1299 158.175 16.3159 158.907 16.6879C159.639 17.0599 160.263 17.5579 160.779 18.1819C161.307 18.8059 161.715 19.5019 162.003 20.2699C162.291 21.0379 162.435 21.8239 162.435 22.6279C162.435 23.4799 162.285 24.2959 161.985 25.0759C161.685 25.8439 161.265 26.5339 160.725 27.1459C160.185 27.7459 159.549 28.2199 158.817 28.5679C158.085 28.9159 157.293 29.0899 156.441 29.0899ZM151.707 22.6099C151.707 23.3059 151.821 23.9779 152.049 24.6259C152.277 25.2619 152.601 25.8319 153.021 26.3359C153.441 26.8279 153.939 27.2239 154.515 27.5239C155.103 27.8119 155.745 27.9559 156.441 27.9559C157.173 27.9559 157.827 27.8059 158.403 27.5059C158.991 27.1939 159.489 26.7859 159.897 26.2819C160.317 25.7659 160.635 25.1899 160.851 24.5539C161.067 23.9179 161.175 23.2699 161.175 22.6099C161.175 21.9139 161.061 21.2479 160.833 20.6119C160.605 19.9759 160.275 19.4059 159.843 18.9019C159.423 18.3979 158.925 18.0019 158.349 17.7139C157.773 17.4259 157.137 17.2819 156.441 17.2819C155.721 17.2819 155.067 17.4319 154.479 17.7319C153.903 18.0319 153.405 18.4399 152.985 18.9559C152.577 19.4599 152.259 20.0299 152.031 20.6659C151.815 21.3019 151.707 21.9499 151.707 22.6099Z" fill="white"/>
<path d="M166.071 18.5419V28.9999H164.811V16.2199H165.855L174.243 26.8759V16.2379H175.503V28.9999H174.333L166.071 18.5419Z" fill="white"/>
<path d="M188.795 16.2199V28.9999H187.553V23.0239H179.975V28.9999H178.715V16.2199H179.975V21.9079H187.553V16.2199H188.795Z" fill="white"/>
<path d="M195.964 16.2199H197.026L202.336 28.9999H201.004L199.348 25.0039H193.606L191.968 28.9999H190.618L195.964 16.2199ZM199.06 24.0139L196.486 17.6959L193.876 24.0139H199.06Z" fill="white"/>
</svg>
