<?xml version="1.0" encoding="utf-8"?>
<!-- Generator: Adobe Illustrator 26.5.0, SVG Export Plug-In . SVG Version: 6.00 Build 0)  -->
<svg version="1.1" id="Layer_1" xmlns="http://www.w3.org/2000/svg" xmlns:xlink="http://www.w3.org/1999/xlink" x="0px" y="0px"
	 viewBox="0 0 42.5 42.5" style="enable-background:new 0 0 42.5 42.5;" xml:space="preserve">
<style type="text/css">
	.st0{fill:#FFFFFF;}
</style>
<path class="st0" d="M21.3,27.1c-0.3,0-0.7,0.1-0.9,0.3c-0.3,0.2-0.5,0.4-0.6,0.7c-0.1,0.3-0.2,0.6-0.1,1c0.1,0.3,0.2,0.6,0.5,0.9
	c0.2,0.2,0.5,0.4,0.9,0.5c0.3,0.1,0.7,0,1-0.1c0.3-0.1,0.6-0.3,0.7-0.6c0.2-0.3,0.3-0.6,0.3-0.9c0-0.4-0.2-0.9-0.5-1.2
	C22.1,27.3,21.7,27.1,21.3,27.1z M21.3,4.6c-0.3,0-0.6,0-0.9,0C16,4.9,11.9,6.8,9,10c-2.9,3.2-4.5,7.4-4.4,11.7
	c0.1,4.3,1.9,8.5,5,11.5c3.1,3,7.3,4.7,11.6,4.7c0.3,0,0.6,0,0.9,0c4.3-0.2,8.4-2.2,11.3-5.4s4.5-7.4,4.4-11.7
	c-0.1-4.3-1.9-8.5-5-11.5C29.8,6.3,25.6,4.6,21.3,4.6L21.3,4.6z M21.3,34.6c-2.7,0-5.4-0.8-7.6-2.4c-2.2-1.5-3.9-3.7-4.9-6.2
	c-1-2.5-1.1-5.3-0.5-7.9c0.7-2.6,2.1-5,4.1-6.8c-0.4,1.4-0.5,2.8-0.2,4.2s0.8,2.7,1.7,3.8c0.9,1.1,2,2,3.2,2.7
	c1.3,0.6,2.7,1,4.1,0.9c1.5,0,3,0.6,4.1,1.7c1.1,1.1,1.7,2.6,1.7,4.1s-0.6,3-1.7,4.1C24.3,34,22.8,34.6,21.3,34.6z M30.1,31.2
	c0.4-1.4,0.5-2.8,0.2-4.2c-0.3-1.4-0.8-2.7-1.7-3.8c-0.9-1.1-2-2-3.2-2.7c-1.3-0.6-2.7-1-4.1-0.9c-1.5,0-3-0.6-4.1-1.7
	s-1.7-2.6-1.7-4.1s0.6-3,1.7-4.1s2.6-1.7,4.1-1.7c2.7,0,5.4,0.8,7.6,2.4c2.2,1.5,3.9,3.7,4.9,6.2c1,2.5,1.1,5.3,0.5,7.9
	S32.1,29.4,30.1,31.2z M21.3,12.1c-0.3,0-0.7,0.1-0.9,0.3c-0.3,0.2-0.5,0.4-0.6,0.7c-0.1,0.3-0.2,0.6-0.1,1c0.1,0.3,0.2,0.6,0.5,0.9
	c0.2,0.2,0.5,0.4,0.9,0.5c0.3,0.1,0.7,0,1-0.1c0.3-0.1,0.6-0.3,0.7-0.6c0.2-0.3,0.3-0.6,0.3-0.9c0-0.4-0.2-0.9-0.5-1.2
	C22.1,12.3,21.7,12.1,21.3,12.1z"/>
</svg>
