<?xml version="1.0" encoding="utf-8"?>
<!-- Generator: Adobe Illustrator 26.5.0, SVG Export Plug-In . SVG Version: 6.00 Build 0)  -->
<svg version="1.1" id="Layer_1" xmlns="http://www.w3.org/2000/svg" xmlns:xlink="http://www.w3.org/1999/xlink" x="0px" y="0px"
	 viewBox="0 0 42.5 42.5" style="enable-background:new 0 0 42.5 42.5;" xml:space="preserve">
<style type="text/css">
	.st0{fill:#FFFFFF;}
</style>
<path class="st0" d="M21.3,31.3c-0.3,0-0.7,0.1-0.9,0.3c-0.3,0.2-0.5,0.4-0.6,0.7c-0.1,0.3-0.2,0.6-0.1,1c0.1,0.3,0.2,0.6,0.5,0.9
	c0.2,0.2,0.5,0.4,0.9,0.5c0.3,0.1,0.7,0,1-0.1c0.3-0.1,0.6-0.3,0.7-0.6c0.2-0.3,0.3-0.6,0.3-0.9c0-0.4-0.2-0.9-0.5-1.2
	C22.1,31.4,21.7,31.3,21.3,31.3z M31.3,2.9h-20c-0.4,0-0.9,0.2-1.2,0.5S9.6,4.2,9.6,4.6v15c0,1.3,0.5,2.6,1.5,3.5
	c0.9,0.9,2.2,1.5,3.5,1.5h1.7v3.9c-0.8,1-1.4,2.1-1.6,3.4s0,2.6,0.5,3.7c0.5,1.2,1.4,2.2,2.5,2.9c1.1,0.7,2.3,1.1,3.6,1.1
	s2.5-0.4,3.6-1.1c1.1-0.7,1.9-1.7,2.5-2.9c0.5-1.2,0.7-2.5,0.5-3.7c-0.2-1.3-0.7-2.5-1.6-3.4v-3.9h1.7c1.3,0,2.6-0.5,3.5-1.5
	c0.9-0.9,1.5-2.2,1.5-3.5v-15c0-0.4-0.2-0.9-0.5-1.2S31.7,2.9,31.3,2.9z M21.3,36.3c-0.7,0-1.3-0.2-1.9-0.6c-0.6-0.4-1-0.9-1.2-1.5
	c-0.2-0.6-0.3-1.3-0.1-2c0.2-0.7,0.5-1.2,1-1.7c0.2-0.2,0.3-0.3,0.4-0.6s0.1-0.4,0.1-0.7v-4.6h3.3v4.6c0,0.2,0,0.5,0.1,0.7
	c0.1,0.2,0.2,0.4,0.4,0.6c0.5,0.5,0.8,1,1,1.7c0.2,0.7,0.1,1.3-0.1,2c-0.2,0.6-0.7,1.2-1.2,1.5C22.6,36,21.9,36.3,21.3,36.3z
	 M29.6,19.6c0,0.4-0.2,0.9-0.5,1.2c-0.3,0.3-0.7,0.5-1.2,0.5H14.6c-0.4,0-0.9-0.2-1.2-0.5c-0.3-0.3-0.5-0.7-0.5-1.2v-1.7h16.7V19.6z
	 M29.6,14.6H12.9V6.3h16.7V14.6z"/>
</svg>
