<?xml version="1.0" encoding="utf-8"?>
<!-- Generator: Adobe Illustrator 26.5.0, SVG Export Plug-In . SVG Version: 6.00 Build 0)  -->
<svg version="1.1" id="Layer_1" xmlns="http://www.w3.org/2000/svg" xmlns:xlink="http://www.w3.org/1999/xlink" x="0px" y="0px"
	 viewBox="0 0 42.5 42.5" style="enable-background:new 0 0 42.5 42.5;" xml:space="preserve">
<style type="text/css">
	.st0{fill:#FFFFFF;}
</style>
<path class="st0" d="M29.7,6c-1.5-1.3-3.3-2.2-5.3-2.6c-1.9-0.5-3.9-0.5-5.9-0.1c-2.6,0.5-5,1.8-6.8,3.7c-1.9,1.9-3.1,4.3-3.6,6.9
	c-0.4,1.9-0.3,3.9,0.2,5.9c0.5,1.9,1.4,3.7,2.7,5.2c1.2,1.3,1.8,3,1.9,4.8v5c0,1.3,0.5,2.6,1.5,3.5c0.9,0.9,2.2,1.5,3.5,1.5h6.7
	c1.3,0,2.6-0.5,3.5-1.5c0.9-0.9,1.5-2.2,1.5-3.5v-4.7c0.1-2,0.8-3.8,2-5.3c2.2-2.7,3.2-6.2,2.9-9.7C34.2,11.4,32.5,8.2,29.7,6
	L29.7,6z M26.3,34.6c0,0.4-0.2,0.9-0.5,1.2c-0.3,0.3-0.7,0.5-1.2,0.5h-6.7c-0.4,0-0.9-0.2-1.2-0.5c-0.3-0.3-0.5-0.7-0.5-1.2v-1.7h10
	V34.6z M29,22.5c-1.7,2-2.7,4.5-2.8,7.1h-3.3v-5c0-0.4-0.2-0.9-0.5-1.2c-0.3-0.3-0.7-0.5-1.2-0.5c-0.4,0-0.9,0.2-1.2,0.5
	c-0.3,0.3-0.5,0.7-0.5,1.2v5h-3.3c0-2.6-1-5-2.7-6.9c-1.1-1.3-1.9-2.9-2.2-4.6s-0.2-3.5,0.4-5.1c0.6-1.6,1.6-3.1,2.9-4.2
	s2.9-1.9,4.6-2.3c1.5-0.3,3-0.3,4.4,0.1c1.4,0.4,2.8,1,3.9,2c1.2,0.9,2.1,2.1,2.7,3.5c0.6,1.3,1,2.8,1,4.3
	C31.3,18.5,30.5,20.8,29,22.5L29,22.5z"/>
</svg>
